<svg xmlns="http://www.w3.org/2000/svg" width="760" height="180" viewBox="0 0 760 180" role="img" aria-labelledby="title desc">
  <title id="title">ai-canon</title>
  <desc id="desc">A central canon distributing AI agent configuration across repositories.</desc>
  <defs>
    <linearGradient id="panel" x1="0" y1="0" x2="1" y2="1">
      <stop offset="0" stop-color="#111827"/>
      <stop offset="1" stop-color="#0b1020"/>
    </linearGradient>
    <linearGradient id="signal" x1="28" y1="28" x2="144" y2="148" gradientUnits="userSpaceOnUse">
      <stop stop-color="#a78bfa"/>
      <stop offset="0.5" stop-color="#6366f1"/>
      <stop offset="1" stop-color="#22d3ee"/>
    </linearGradient>
    <filter id="glow" x="-50%" y="-50%" width="200%" height="200%">
      <feGaussianBlur stdDeviation="5" result="blur"/>
      <feMerge><feMergeNode in="blur"/><feMergeNode in="SourceGraphic"/></feMerge>
    </filter>
  </defs>

  <rect x="1" y="1" width="758" height="178" rx="28" fill="url(#panel)" stroke="#263248" stroke-width="2"/>

  <g fill="none" stroke="url(#signal)" stroke-width="5" stroke-linecap="round" stroke-linejoin="round">
    <path d="M42 47 82 69M42 133l40-22M139 47 99 69M139 133l-40-22" opacity=".72"/>
    <path d="M90 61 114 75v30l-24 14-24-14V75z" fill="#111827"/>
  </g>
  <path d="M78 80h24v21H78zM82 76h16" fill="none" stroke="#f8fafc" stroke-width="4" stroke-linecap="round" stroke-linejoin="round"/>
  <path d="M90 80v21" stroke="#a5b4fc" stroke-width="3"/>
  <g fill="#22d3ee" filter="url(#glow)">
    <circle cx="38" cy="45" r="7"/><circle cx="38" cy="135" r="7"/>
  </g>
  <g fill="#a78bfa" filter="url(#glow)">
    <circle cx="143" cy="45" r="7"/><circle cx="143" cy="135" r="7"/>
  </g>

  <text x="184" y="94" fill="#f8fafc" font-family="ui-sans-serif, system-ui, -apple-system, BlinkMacSystemFont, 'Segoe UI', sans-serif" font-size="58" font-weight="750" letter-spacing="-2">ai-canon</text>
  <text x="187" y="127" fill="#94a3b8" font-family="ui-monospace, SFMono-Regular, Menlo, Consolas, monospace" font-size="17" letter-spacing=".8">ONE CANON · EVERY REPO · EVERY AGENT</text>
</svg>
